<?xml version="1.0" encoding="UTF-8" standalone="no"?>
<svg
   xmlns:dc="http://purl.org/dc/elements/1.1/"
   xmlns:cc="http://creativecommons.org/ns#"
   xmlns:rdf="http://www.w3.org/1999/02/22-rdf-syntax-ns#"
   xmlns:svg="http://www.w3.org/2000/svg"
   xmlns="http://www.w3.org/2000/svg"
   xmlns:sodipodi="http://sodipodi.sourceforge.net/DTD/sodipodi-0.dtd"
   xmlns:inkscape="http://www.inkscape.org/namespaces/inkscape"
   inkscape:version="1.0 (4035a4fb49, 2020-05-01)"
   sodipodi:docname="logo.svg"
   id="svg6"
   version="1.1"
   fill="none"
   viewBox="0 0 122.605 127.489"
   height="127.489"
   width="122.605">
  <metadata
     id="metadata12">
    <rdf:RDF>
      <cc:Work
         rdf:about="">
        <dc:format>image/svg+xml</dc:format>
        <dc:type
           rdf:resource="http://purl.org/dc/dcmitype/StillImage" />
        <dc:title></dc:title>
      </cc:Work>
    </rdf:RDF>
  </metadata>
  <defs
     id="defs10" />
  <sodipodi:namedview
     inkscape:current-layer="svg6"
     inkscape:window-maximized="1"
     inkscape:window-y="-11"
     inkscape:window-x="-11"
     inkscape:cy="126.34692"
     inkscape:cx="99.580678"
     inkscape:zoom="5.3334528"
     showgrid="false"
     id="namedview8"
     inkscape:window-height="2080"
     inkscape:window-width="3840"
     inkscape:pageshadow="2"
     inkscape:pageopacity="0"
     guidetolerance="10"
     gridtolerance="10"
     objecttolerance="10"
     borderopacity="1"
     bordercolor="#666666"
     pagecolor="#ffffff" />
  <g
     transform="translate(2.0656395e-4,-49.861765)"
     id="g839">
    <rect
       x="0"
       y="58"
       width="114"
       height="114"
       rx="30"
       fill="#08b464"
       id="rect2" />
    <path
       d="m 54.4877,136.628 19.9891,5.356 0.4182,-1.561 C 78.4249,127.729 84.127,123.017 95.5199,119.636 108.334,115.992 117.65,108.838 121.333,95.0915 126.77,74.8022 114.392,57.8463 91.462,51.7021 70.4524,46.0726 50.2843,53.1499 43.572,75.7995 l 21.3697,5.726 C 68.5058,70.3851 78.1171,67.1701 86.581,69.438 c 9.1841,2.4609 14.927,10.5621 12.4017,19.9863 -2.2518,8.4039 -9.3785,12.6707 -17.8642,15.2867 -12.3941,3.756 -20.3022,8.778 -26.2126,30.356 z m 0.4682,40.272 c 7.0832,1.898 14.7222,-2.361 16.7445,-9.668 1.8701,-7.219 -2.6164,-14.726 -9.6996,-16.624 -7.3233,-1.963 -14.8423,2.328 -16.7124,9.547 -2.0223,7.307 2.3441,14.782 9.6675,16.745 z"
       fill="#ffffff"
       id="path4" />
  </g>
</svg>
